<svg xmlns="http://www.w3.org/2000/svg" width="282.92" height="268.366" viewBox="0 0 282.92 268.366">
  <g id="Group_589" data-name="Group 589" transform="translate(518 -23.5)" opacity="0.19">
    <path id="Path_222" data-name="Path 222" d="M227.862,73.836l-24.927-11.51,24.113-12.664c2.067-8.571,2.247-17.349,3.754-26.672,7.986,5.679,13.34,13.668,20.674,18.372l26.411-4.947c-4.338,8.722-8.1,16.282-12.093,24.314l13.319,23.893L251.67,80.9l-18.494,19.555c-2.842-8.86-2.9-17.8-5.314-26.621" transform="translate(-514.194 23.931)" fill="#6d29bd"/>
    <path id="Path_223" data-name="Path 223" d="M81.216,28.34,69.646,16.021l16.682-1.665C89.485,9.942,91.612,4.974,94.624,0c3.248,5.084,4.459,10.878,7.559,15.255L118.4,18.524,105.887,29.61l2.089,16.708-14.8-8.454L78.107,44.758c.423-5.712,2.45-10.825,3.109-16.418" transform="translate(-516.694 23.5)" fill="#6d29bd"/>
    <path id="Path_224" data-name="Path 224" d="M173.55,23.734c-1.034-1.542-2.03-3.028-3.148-4.7l5.6.36c1.282-1.286,2.255-2.81,3.519-4.287.8,1.854.88,3.833,1.665,5.446l5.174,1.962L181.624,25.5c-.069,1.773-.14,3.589-.22,5.629l-4.425-3.6-5.348,1.455c.45-1.862,1.4-3.439,1.92-5.25" transform="translate(-514.804 23.783)" fill="#6d29bd"/>
    <path id="Path_225" data-name="Path 225" d="M122.288,81.579l-5.363-8,9.534.611c2.185-2.189,3.842-4.786,6-7.3,1.354,3.159,1.5,6.529,2.835,9.278l8.813,3.342-8.061,5.073c-.118,3.02-.239,6.115-.375,9.587l-7.54-6.126-9.11,2.48c.767-3.173,2.381-5.86,3.27-8.944" transform="translate(-515.807 24.754)" fill="#6d29bd"/>
    <path id="Path_226" data-name="Path 226" d="M223.656,223.857l-12.369-2.441,9.391-8.259c-.005-4.049-.874-7.985-1.209-12.309,4.178,1.67,7.431,4.657,11.212,5.963l11.251-5.064c-.992,4.36-1.852,8.141-2.766,12.158l8.528,9.222-12.65,1.308c-2,3.5-3.992,6.978-6.138,10.727-2.226-3.646-3.219-7.627-5.251-11.305" transform="translate(-514.037 27.267)" fill="#6d29bd"/>
    <path id="Path_221" data-name="Path 221" d="M205.543,186.133a51.543,51.543,0,0,1-3.36,14.261c-15.039,37.625-43.112,60-84.624,65.768A103.67,103.67,0,0,1,4.136,192.915C-11.509,140.043,18.629,83.555,70.892,66.522a31.6,31.6,0,0,1,9.734-1.539h.138c-32.829,23.849-45.352,55.281-37.019,93.445,7.454,34.134,30.582,56.05,63.738,64.416C147.327,232.9,180.374,219.511,205.543,186.133Z" transform="translate(-518 24.719)" fill="#6d29bd"/>
  </g>
</svg>
