<svg id="Iconly_Bold_Image_2" data-name="Iconly/Bold/Image 2" xmlns="http://www.w3.org/2000/svg" width="28" height="28" viewBox="0 0 28 28">
  <g id="Image_2" data-name="Image 2" transform="translate(-0.167 -0.166)">
    <path id="Image_2-2" data-name="Image 2" d="M7.893,28a9.3,9.3,0,0,1-1.515-.132c-.015,0-.03-.005-.044-.008a7.325,7.325,0,0,1-4.575-2.621c-.008,0-.01-.005-.015-.013a.075.075,0,0,0-.01-.014A8.677,8.677,0,0,1,0,19.743V8.243C0,3.313,3.171,0,7.893,0H20.1C24.824,0,28,3.313,28,8.243v11.5a3.226,3.226,0,0,1-.026.358c-.009.081-.018.163-.023.247,0,.048,0,.095-.005.142,0,.071,0,.144-.01.214a.753.753,0,0,1-.013.077.55.55,0,0,0-.014.079,9.393,9.393,0,0,1-.217,1.266c-.019.083-.042.166-.063.246l-.021.076a8.483,8.483,0,0,1-.4,1.13c-.029.066-.06.129-.092.193-.019.037-.035.071-.052.1a7.527,7.527,0,0,1-.57.977c-.043.06-.087.117-.131.171-.026.033-.052.066-.077.1a6.879,6.879,0,0,1-.718.814c-.052.049-.107.094-.161.139-.037.029-.074.059-.11.091a7.344,7.344,0,0,1-.851.645c-.066.04-.136.076-.2.11-.047.023-.092.045-.137.071a7.313,7.313,0,0,1-.961.466,2.588,2.588,0,0,1-.261.077c-.059.016-.121.032-.18.05l-.106.033a7.272,7.272,0,0,1-.92.241,5.257,5.257,0,0,1-.588.058c-.088.006-.176.011-.263.019s-.189.019-.28.029A3.651,3.651,0,0,1,20.1,28ZM1.954,8.243v11.5A7.46,7.46,0,0,0,2.494,22.6l.5-.61c.788-.961,2.255-2.748,2.267-2.759a5.063,5.063,0,0,1,3.7-2.065,3.794,3.794,0,0,1,1.47.309,9.037,9.037,0,0,1,1.414.785l.126.081a3.26,3.26,0,0,0,1.661.752c.034,0,.068,0,.1-.005a1.455,1.455,0,0,0,.575-.2,18.893,18.893,0,0,0,2.972-3.667c.079-.113.132-.188.15-.21A4.682,4.682,0,0,1,21.1,13.045a4.177,4.177,0,0,1,2.171.617c.272.163,2.148,1.473,2.773,2V8.243c0-3.822-2.336-6.29-5.951-6.29H7.893C4.285,1.953,1.954,4.421,1.954,8.243ZM5.684,9.79A3.366,3.366,0,0,1,5.6,9.056a3.5,3.5,0,0,1,7,.064,3.492,3.492,0,0,1-6.917.67Z" transform="translate(0.167 0.166)" fill="#fff"/>
  </g>
</svg>
