<svg xmlns="http://www.w3.org/2000/svg" width="28.115" height="28.115" viewBox="0 0 28.115 28.115">
  <path id="Icon_awesome-check-circle" data-name="Icon awesome-check-circle" d="M28.677,14.62A14.057,14.057,0,1,1,14.62.563,14.057,14.057,0,0,1,28.677,14.62ZM12.994,22.063l10.43-10.43a.907.907,0,0,0,0-1.283L22.141,9.068a.907.907,0,0,0-1.283,0l-8.506,8.506L8.381,13.6a.907.907,0,0,0-1.283,0L5.816,14.885a.907.907,0,0,0,0,1.283l5.895,5.895a.907.907,0,0,0,1.283,0Z" transform="translate(-0.563 -0.563)" fill="#6d29bd"/>
</svg>
