<svg xmlns="http://www.w3.org/2000/svg" width="302.196" height="135.257" viewBox="0 0 302.196 135.257">
  <g id="Group_588" data-name="Group 588" transform="translate(591.75 -395.511)">
    <path id="Path_214" data-name="Path 214" d="M340.457,137.361c.077-.19.015-.262-.18-.257-.539.005-1.073.005-1.607,0-.226-.005-.257.092-.18.277.1.252.2.508.293.76a1.667,1.667,0,0,0,.246.575.481.481,0,0,1,.139.447c-.365.18-.667.318-.97.472a3.664,3.664,0,0,1-2.079.426,3.537,3.537,0,0,1-2.008-.893,2.951,2.951,0,0,0-1.653-.786,2.208,2.208,0,0,0-2.4,1.576c-.293,1.32-.57,2.644-.852,3.964a14.887,14.887,0,0,0,2.67,4.031c.637.015,1.273.026,1.91.046a1.153,1.153,0,0,1,1.273,1.1c.082.534.164,1.063.236,1.6a14.088,14.088,0,0,0,2.86,1.253c-.067-.652-.139-1.3-.231-1.946-.144-1-.365-1.982-.59-2.963a1.647,1.647,0,0,0-1.263-1.273,10.306,10.306,0,0,0-1.1-.236c-.411-.067-.827-.108-1.268-.164.257-1.207.508-2.382.76-3.543a7.582,7.582,0,0,0,1.109.272,6.592,6.592,0,0,0,4.149-1.058.962.962,0,0,0,.175-1.453.8.8,0,0,1-.144-.339c-.056-.236.087-.4.19-.6a12.274,12.274,0,0,0,.519-1.289m7.64,5.448a1.893,1.893,0,0,0-.421-.031q-5.707-.008-11.419-.005c-.077,0-.154.005-.236.01a.911.911,0,0,0-.072,1.807,3.309,3.309,0,0,0,.39.021h5.037v7.933c.308.026.621.036.935.036.087,0,.175,0,.262-.005v-7.964h5.052a2.491,2.491,0,0,0,.39-.026.914.914,0,0,0,.76-.852.927.927,0,0,0-.678-.924m6.562-6.737c-.092-.272-.154-.555-.246-.832a8.488,8.488,0,0,0-.436-1.176,1.015,1.015,0,0,0-1.679-.37.409.409,0,0,1-.544.026,2.372,2.372,0,0,0-2.613.134,2.4,2.4,0,0,0-1.109,2.321,2.509,2.509,0,0,0,2.321,2.326,2.547,2.547,0,0,0,2.747-2.285c.015-.3,0-.611,0-.914.1.159.205.339.318.508a4.31,4.31,0,0,0,1.268,1.35.914.914,0,0,0,.775.159,2.477,2.477,0,0,1-.8-1.248m-20.769-2.66a2.554,2.554,0,0,0,.015,5.109,2.6,2.6,0,0,0,2.552-2.552,2.569,2.569,0,0,0-2.567-2.557m17,14.9a2.739,2.739,0,0,0-.288.01.856.856,0,0,0-.822.806.841.841,0,0,0,.78.765,14.249,14.249,0,0,0,1.848-1.581Z" transform="translate(-751.923 330.611)" fill="#03032b"/>
    <path id="Path_222" data-name="Path 222" d="M215.5,48.617l-12.563-5.8,12.153-6.383c1.042-4.32,1.133-8.744,1.892-13.443,4.025,2.862,6.723,6.889,10.42,9.26l13.311-2.493L234.616,42.01l6.713,12.042L227.5,52.178l-9.321,9.856c-1.433-4.466-1.462-8.969-2.678-13.417" transform="translate(-690.486 384.326)" fill="#6d29bd"/>
    <path id="Path_223" data-name="Path 223" d="M75.477,14.283,69.646,8.075l8.408-.839C79.645,5.011,80.717,2.507,82.235,0c1.637,2.562,2.247,5.483,3.81,7.688l8.172,1.648-6.305,5.587,1.053,8.421L81.5,19.084,73.91,22.558c.213-2.879,1.235-5.456,1.567-8.275" transform="translate(-625.635 395.511)" fill="#6d29bd"/>
    <path id="Path_224" data-name="Path 224" d="M171.989,19.456,170.4,17.089l2.821.181c.646-.648,1.136-1.416,1.773-2.161.4.934.444,1.932.839,2.745l2.608.989-2.386,1.5c-.035.893-.07,1.809-.111,2.837l-2.23-1.812-2.7.733c.227-.939.7-1.733.968-2.646" transform="translate(-674.658 388.16)" fill="#6d29bd"/>
    <path id="Path_225" data-name="Path 225" d="M119.628,74.293l-2.7-4.032,4.8.308c1.1-1.1,1.936-2.412,3.022-3.68.682,1.592.755,3.291,1.429,4.676l4.442,1.684-4.063,2.557c-.06,1.522-.121,3.082-.189,4.832l-3.8-3.087L117.98,78.8c.387-1.6,1.2-2.953,1.648-4.508" transform="translate(-648.639 362.967)" fill="#6d29bd"/>
    <path id="Path_226" data-name="Path 226" d="M217.521,212.444l-6.234-1.23,4.733-4.163c0-2.04-.441-4.024-.609-6.2,2.106.842,3.745,2.347,5.651,3.005l5.671-2.552-1.394,6.128,4.3,4.648-6.376.659-3.094,5.407c-1.122-1.838-1.623-3.844-2.646-5.7" transform="translate(-694.55 297.79)" fill="#6d29bd"/>
    <g id="Group_587" data-name="Group 587">
      <path id="Path_215" data-name="Path 215" d="M369.311,147.627a14.909,14.909,0,0,1-2.593,3.856c-.575.01-1.155.015-1.736.026-.169.005-.334-.005-.5.01a1.061,1.061,0,0,0-1.073.991c-.082.6-.164,1.191-.241,1.787a13.747,13.747,0,0,1-2.886,1.217l.046-.4c.144-1.14.323-2.275.488-3.409.005-.051.005-.108.01-.2h-1.243a3.685,3.685,0,0,1,.76-1.961,3.728,3.728,0,0,1,2.644-1.232c.406-.051.816-.1,1.222-.164.18-.026.349-.113.3-.349-.169-.822-.344-1.643-.519-2.475-.293.087-.555.18-.822.246a4.541,4.541,0,0,1-2.511-.185,10.574,10.574,0,0,1-1.766-.729.962.962,0,0,1-.277-1.6.685.685,0,0,0-.041-.75.259.259,0,0,1-.077-.1c-.175-.457-.354-.914-.529-1.371-.051-.133.005-.205.144-.205h1.715c.164,0,.19.1.144.231-.175.452-.318.914-.534,1.34-.1.19-.226.339-.159.508.293.133.565.231.816.37a3.52,3.52,0,0,0,4.267-.411,2.571,2.571,0,0,1,2.793-.57,1.908,1.908,0,0,1,1.253,1.443q.431,2,.883,4c.005.031.015.056.021.087" transform="translate(-765.908 327.092)" fill="#f5f5f5"/>
      <path id="Path_216" data-name="Path 216" d="M339.938,142.168c-.1.2-.246.359-.19.6a.8.8,0,0,0,.144.339.962.962,0,0,1-.175,1.453,6.592,6.592,0,0,1-4.149,1.058,7.584,7.584,0,0,1-1.109-.272c-.252,1.16-.5,2.336-.76,3.543.442.057.857.1,1.268.164a10.3,10.3,0,0,1,1.1.236,1.647,1.647,0,0,1,1.263,1.273c.226.981.447,1.967.59,2.963.092.647.164,1.294.231,1.946a14.088,14.088,0,0,1-2.86-1.253c-.072-.534-.154-1.063-.236-1.6a1.153,1.153,0,0,0-1.273-1.1c-.637-.021-1.273-.031-1.91-.046a14.887,14.887,0,0,1-2.67-4.031c.282-1.32.56-2.644.852-3.964a2.208,2.208,0,0,1,2.4-1.576,2.951,2.951,0,0,1,1.653.786,3.537,3.537,0,0,0,2.008.893,3.664,3.664,0,0,0,2.079-.426c.3-.154.606-.293.97-.472a.481.481,0,0,0-.139-.447,1.667,1.667,0,0,1-.246-.575c-.1-.252-.19-.508-.293-.76-.077-.185-.046-.282.18-.277.534.005,1.068.005,1.607,0,.2-.005.257.067.18.257a12.273,12.273,0,0,1-.519,1.289" transform="translate(-751.923 327.092)" fill="#f5f5f5"/>
      <path id="Path_217" data-name="Path 217" d="M354.437,152.623a.914.914,0,0,1-.76.852,2.493,2.493,0,0,1-.39.026h-5.052v7.964c-.087.005-.175.005-.262.005-.313,0-.626-.01-.934-.036V153.5H342a3.314,3.314,0,0,1-.39-.021.911.911,0,0,1,.072-1.807c.082-.005.159-.01.236-.01q5.715,0,11.419.005a1.893,1.893,0,0,1,.421.031.927.927,0,0,1,.678.924" transform="translate(-757.586 321.721)" fill="#f5f5f5"/>
      <path id="Path_218" data-name="Path 218" d="M373.285,137.32a.914.914,0,0,1-.775-.159,4.311,4.311,0,0,1-1.268-1.35c-.113-.169-.221-.349-.318-.508,0,.3.015.611,0,.914a2.547,2.547,0,0,1-2.747,2.285,2.509,2.509,0,0,1-2.321-2.326,2.4,2.4,0,0,1,1.109-2.321,2.372,2.372,0,0,1,2.614-.134.409.409,0,0,0,.544-.026,1.015,1.015,0,0,1,1.679.37,8.488,8.488,0,0,1,.436,1.176c.092.277.154.56.246.832a2.476,2.476,0,0,0,.8,1.248" transform="translate(-769.749 330.611)" fill="#f5f5f5"/>
      <path id="Path_219" data-name="Path 219" d="M338.486,135.99a2.554,2.554,0,1,1-5.109-.01,2.554,2.554,0,0,1,5.109.01" transform="translate(-753.952 330.59)" fill="#f5f5f5"/>
      <path id="Path_220" data-name="Path 220" d="M370.386,162.443h1.52a14.251,14.251,0,0,1-1.848,1.581.841.841,0,0,1-.78-.765.856.856,0,0,1,.822-.806,2.739,2.739,0,0,1,.288-.01" transform="translate(-771.419 316.476)" fill="#f5f5f5"/>
      <path id="Path_221" data-name="Path 221" d="M103.594,126.043a25.977,25.977,0,0,1-1.693,7.187c-7.58,18.963-21.728,30.24-42.651,33.147A52.25,52.25,0,0,1,2.085,129.461c-7.885-26.648,7.3-55.118,33.645-63.7a15.928,15.928,0,0,1,4.906-.776h.069C24.159,77,17.848,92.845,22.048,112.08c3.757,17.2,15.413,28.249,32.124,32.466C74.253,149.612,90.909,142.865,103.594,126.043Z" transform="translate(-591.749 363.894)" fill="#f5f5f5"/>
      <path id="Path_227" data-name="Path 227" d="M91.791,145.79q0,3.018-3,3.017H78.858q-2.975,0-2.974-3.017v-7.869H80.82v6.73h6.034v-6.477l-9.894-9.367a3.5,3.5,0,0,1-1.076-2.637v-7.342q0-3.038,2.974-3.038h9.936a2.648,2.648,0,0,1,3,3v7.384H86.854v-6.224H80.82v5.97l9.894,9.325a3.506,3.506,0,0,1,1.076,2.679Z" transform="translate(-628.67 339.174)" fill="#f5f5f5"/>
      <path id="Path_228" data-name="Path 228" d="M131.1,115.981l-4.367,13.8q-.8,2.046-2.172,6.9v12.13H119.6v-12.13a27.9,27.9,0,0,0-.97-3.481q-1.118-3.143-1.2-3.418l-4.346-13.8c-.015-.014-.015-.078,0-.189h5.084l3.945,14.345,3.924-14.345H131.1Z" transform="translate(-646.765 339.173)" fill="#f5f5f5"/>
      <path id="Path_229" data-name="Path 229" d="M171.846,148.807h-4.325l-7.91-20.78a12.506,12.506,0,0,1,.316,2.383v18.4h-4.811V115.791h4.326l7.911,20.358a12.468,12.468,0,0,1-.317-2.384V115.791h4.81Z" transform="translate(-667.22 339.174)" fill="#f5f5f5"/>
      <path id="Path_230" data-name="Path 230" d="M212.475,145.79a2.666,2.666,0,0,1-3.017,3.017H199.163q-2.934,0-2.933-3.017V118.829q0-3.038,2.933-3.038h10.294q3.018,0,3.017,3.038v7.722H207.56v-6.519h-6.393v24.535h6.393v-6.94h4.915Z" transform="translate(-687.224 339.174)" fill="#f5f5f5"/>
      <path id="Path_231" data-name="Path 231" d="M253.444,148.807h-4.979V134h-6.688v14.81H236.84V115.791h4.937V129.4h6.688V115.791h4.979Z" transform="translate(-706.983 339.174)" fill="#f5f5f5"/>
      <path id="Path_232" data-name="Path 232" d="M295.129,148.807h-5.148l-5.443-15.337V130.5h4.853V120.032h-6.224v28.776H278.23V115.791h13.1q2.974,0,2.974,3.038v12a2.617,2.617,0,0,1-1.414,2.7,10.156,10.156,0,0,1-3.207.317Z" transform="translate(-727.121 339.174)" fill="#f5f5f5"/>
      <path id="Path_233" data-name="Path 233" d="M417.593,148.807h-4.325l-7.91-20.78a12.506,12.506,0,0,1,.316,2.383v18.4h-4.811V115.791h4.325l7.911,20.358a12.508,12.508,0,0,1-.317-2.384V115.791h4.81Z" transform="translate(-786.788 339.174)" fill="#f5f5f5"/>
      <rect id="Rectangle_148" data-name="Rectangle 148" width="4.937" height="33.016" transform="translate(-364.361 454.965)" fill="#f5f5f5"/>
      <path id="Path_234" data-name="Path 234" d="M478.612,145.79a2.666,2.666,0,0,1-3.017,3.017H465.3q-2.934,0-2.933-3.017V118.829q0-3.038,2.933-3.038h10.294q3.018,0,3.017,3.038v7.722H473.7v-6.519H467.3v24.535H473.7v-6.94h4.915Z" transform="translate(-816.712 339.174)" fill="#f5f5f5"/>
      <rect id="Rectangle_149" data-name="Rectangle 149" width="4.937" height="33.016" transform="translate(-333.827 454.965)" fill="#f5f5f5"/>
      <path id="Path_235" data-name="Path 235" d="M534.784,120.158h-5.443v28.649h-4.916V120.158h-5.443v-4.366h15.8Z" transform="translate(-844.258 339.174)" fill="#f5f5f5"/>
      <path id="Path_236" data-name="Path 236" d="M571.47,115.981l-4.367,13.8q-.8,2.046-2.172,6.9v12.13h-4.958v-12.13A27.882,27.882,0,0,0,559,133.2q-1.117-3.143-1.2-3.418l-4.346-13.8c-.015-.014-.015-.078,0-.189h5.084l3.945,14.345,3.924-14.345h5.063Z" transform="translate(-861.024 339.173)" fill="#f5f5f5"/>
    </g>
    <path id="Path_237" data-name="Path 237" d="M375.337,165.573v.062c.021-.021.046-.041.067-.062Zm0,0v.062c.021-.021.046-.041.067-.062Zm0,0v.062c.021-.021.046-.041.067-.062Z" transform="translate(-774.368 314.953)" fill="#fff"/>
    <path id="Path_238" data-name="Path 238" d="M334.487,142.771c-11.775,0-21.355-9.808-21.355-21.863s9.58-21.863,21.355-21.863,21.354,9.808,21.354,21.863-9.58,21.863-21.354,21.863m0-37.592a15.738,15.738,0,1,0,15.22,15.729,15.5,15.5,0,0,0-15.22-15.729" transform="translate(-744.102 347.322)" fill="#6d29bd"/>
  </g>
</svg>
