<svg xmlns="http://www.w3.org/2000/svg" width="14.759" height="14" viewBox="0 0 14.759 14">
  <g id="Group_660" data-name="Group 660" transform="translate(518 -23.5)">
    <path id="Path_222" data-name="Path 222" d="M204.235,25.643l-1.3-.6,1.258-.661c.108-.447.117-.905.2-1.391.417.3.7.713,1.078.958l1.378-.258-.631,1.268.695,1.246-1.432-.194-.965,1.02c-.148-.462-.151-.928-.277-1.389" transform="translate(-710.15 1.732)" fill="#6d29bd"/>
    <path id="Path_223" data-name="Path 223" d="M70.25,1.478l-.6-.643.87-.087c.165-.23.276-.489.433-.749.169.265.233.567.394.8l.846.171-.653.578.109.872-.772-.441-.786.36c.022-.3.128-.565.162-.857" transform="translate(-583.945 23.5)" fill="#6d29bd"/>
    <path id="Path_224" data-name="Path 224" d="M170.566,15.56l-.164-.245.292.019c.067-.067.118-.147.184-.224.041.1.046.2.087.284l.27.1-.247.155c0,.092-.007.187-.012.294l-.231-.188-.279.076c.023-.1.073-.179.1-.274" transform="translate(-679.346 9.193)" fill="#6d29bd"/>
    <path id="Path_225" data-name="Path 225" d="M117.2,67.655l-.28-.417.5.032c.114-.114.2-.25.313-.381.071.165.078.341.148.484l.46.174-.421.265-.02.5-.393-.32-.475.129c.04-.166.124-.306.171-.467" transform="translate(-628.711 -39.834)" fill="#6d29bd"/>
    <path id="Path_226" data-name="Path 226" d="M211.932,202.048l-.645-.127.49-.431c0-.211-.046-.417-.063-.642.218.087.388.243.585.311l.587-.264-.144.634.445.481-.66.068-.32.56c-.116-.19-.168-.4-.274-.59" transform="translate(-718.058 -166.674)" fill="#6d29bd"/>
    <path id="Path_221" data-name="Path 221" d="M10.723,71.3a2.689,2.689,0,0,1-.175.744,5.229,5.229,0,0,1-4.415,3.431A5.368,5.368,0,0,1,3.7,65.063a1.649,1.649,0,0,1,.508-.08h.007a4.46,4.46,0,0,0-1.931,4.875,4.28,4.28,0,0,0,3.325,3.36A4.609,4.609,0,0,0,10.723,71.3Z" transform="translate(-518 -38.029)" fill="#6d29bd"/>
  </g>
</svg>
